<svg width="104" height="97" viewBox="0 0 104 97" fill="none" xmlns="http://www.w3.org/2000/svg">
<path d="M92.048 46.1589C92.048 64.7941 73.9198 79.9008 51.5577 79.9008C29.1955 79.9008 11.0674 64.7941 11.0674 46.1589C11.0674 27.5238 29.1955 12.417 51.5577 12.417C73.9198 12.417 92.048 27.5238 92.048 46.1589ZM14.9167 46.1589C14.9167 63.0225 31.3215 76.693 51.5577 76.693C71.7939 76.693 88.1986 63.0225 88.1986 46.1589C88.1986 29.2954 71.7939 15.6248 51.5577 15.6248C31.3215 15.6248 14.9167 29.2954 14.9167 46.1589Z" fill="#3FB950"/>
<path d="M16.662 58.9388L18.664 59.7483C8.83897 72.1652 6.16433 79.6834 4.90199 93.7824L2.89998 92.9729C4.42944 78.1457 7.38615 70.6715 16.662 58.9388Z" fill="#3FB950"/>
<path d="M86.4225 59.0317L84.4205 59.8413C94.2455 72.2581 96.9201 79.7763 98.1825 93.8753L100.184 93.0658C98.655 78.2386 95.6983 70.7644 86.4225 59.0317Z" fill="#3FB950"/>
<path d="M52.8115 79.5143L49.3117 79.7697C48.7918 85.6266 49.7467 87.5869 50.1789 93.5097L53.2749 93.2838C52.9912 83.8316 53.7527 84.994 52.8115 79.5143Z" fill="#3FB950"/>
<ellipse cx="4.31896" cy="94.4774" rx="4.31896" ry="2.15948" fill="#3FB950"/>
<ellipse cx="51.5577" cy="94.4774" rx="4.31896" ry="2.15948" fill="#3FB950"/>
<ellipse cx="98.7963" cy="94.4774" rx="4.31896" ry="2.15948" fill="#3FB950"/>
<rect x="50.208" y="3.77908" width="2.42942" height="10.7974" fill="#3FB950"/>
<circle cx="51.5577" cy="2.15948" r="2.15948" fill="#3FB950"/>
<path d="M62.6249 32.9321C62.6249 37.1064 57.6699 40.4903 51.5576 40.4903C45.4453 40.4903 40.4902 37.1064 40.4902 32.9321C40.4902 28.7578 45.4453 25.3739 51.5576 25.3739C57.6699 25.3739 62.6249 28.7578 62.6249 32.9321ZM42.1986 32.9321C42.1986 36.462 46.3888 39.3236 51.5576 39.3236C56.7264 39.3236 60.9165 36.462 60.9165 32.9321C60.9165 29.4022 56.7264 26.5406 51.5576 26.5406C46.3888 26.5406 42.1986 29.4022 42.1986 32.9321Z" fill="#3FB950"/>
<ellipse cx="51.4226" cy="31.5824" rx="5.53367" ry="3.77909" fill="#3FB950"/>
</svg>
